<svg xmlns="http://www.w3.org/2000/svg" xmlns:xlink="http://www.w3.org/1999/xlink" xml:space="preserve" width="222.78" height="323.56" viewBox="0 0 167.09 242.67"><defs><radialGradient xlink:href="#a" id="e" cx="48.23" cy="18.14" r="9.5" fx="48.23" fy="18.14" gradientTransform="rotate(179.33 61.82 29.77)scale(1.5606 2.2911)" gradientUnits="userSpaceOnUse"/><radialGradient xlink:href="#b" id="f" cx="171.49" cy="511.22" r="81.9" fx="171.49" fy="511.22" gradientTransform="matrix(1.153 -.674 .3948 .6755 -233.63 270.4)" gradientUnits="userSpaceOnUse"/><radialGradient xlink:href="#c" id="h" cx="171.49" cy="511.22" r="81.9" fx="171.49" fy="511.22" gradientTransform="matrix(1.153 -.674 .3948 .6755 -233.63 270.4)" gradientUnits="userSpaceOnUse"/><radialGradient xlink:href="#d" id="j" cx="181.69" cy="461.84" r="81.9" fx="181.69" fy="461.84" gradientTransform="matrix(1.153 -.674 .3948 .6755 -233.63 270.4)" gradientUnits="userSpaceOnUse"/><linearGradient id="a"><stop offset="0"/><stop offset="1" stop-opacity=".66"/></linearGradient><linearGradient id="b"><stop offset="0" stop-color="#fff" stop-opacity=".53"/><stop offset="1" stop-opacity="0"/></linearGradient><linearGradient id="c"><stop offset="0" stop-color="#fff" stop-opacity=".52"/><stop offset="1" stop-opacity="0"/></linearGradient><linearGradient id="d"><stop offset="0" stop-color="#fff" stop-opacity=".7"/><stop offset="1" stop-opacity="0"/></linearGradient><filter id="g" width="1.28" height="1.32" x="-.14" y="-.16" color-interpolation-filters="sRGB"><feGaussianBlur stdDeviation="9.51"/></filter><filter id="i" width="1.28" height="1.32" x="-.14" y="-.16" color-interpolation-filters="sRGB"><feGaussianBlur stdDeviation="9.51"/></filter><filter id="k" width="1.28" height="1.32" x="-.14" y="-.16" color-interpolation-filters="sRGB"><feGaussianBlur stdDeviation="9.51"/></filter></defs><g stroke="#000"><path fill="#fff" stroke-width=".5" d="M166.84 235.55a6.9 6.9 0 0 1-6.87 6.87H7.1a6.9 6.9 0 0 1-6.86-6.87V7.12A6.9 6.9 0 0 1 7.11.25h152.86c3.78 0 6.87 3.1 6.87 6.87z"/></g><text xml:space="preserve" x="6.71" y="27.55" font-family="Bitstream Vera Sans" font-size="32" font-weight="400" letter-spacing="0" style="line-height:125%" word-spacing="0"><tspan x="6.71" y="27.55" font-family="Arial" style="-inkscape-font-specification:Arial">A</tspan></text><path fill="url(#e)" d="M50.3 22.7s2.37-1.9 2.37-4.54c0-1.54-1.37-4.1-4.54-4.1a4.36 4.36 0 0 0-4.53 4.1c0 2.64 2.37 4.54 2.37 4.54-2.63-2.06-7.34-.65-7.34 3.45a4.36 4.36 0 0 0 4.32 4.32c3.17 0 4.53-3.45 4.53-3.45s.4 3.93-1.94 6.04h5.18c-2.34-2.1-1.94-6.04-1.94-6.04s1.37 3.45 4.53 3.45a4.36 4.36 0 0 0 4.32-4.32c0-4.1-4.7-5.5-7.34-3.45" transform="translate(-203.78 -22.11)scale(5.972)"/><path fill="url(#f)" d="M117.3 604.27s-8.07-94.95 22.86-122.86c34.76-31.37 140-11.43 140-11.43s-71.54 24.84-100 48.57c-27.21 22.7-62.86 85.72-62.86 85.72" filter="url(#g)" transform="matrix(.2286 0 0 .2489 1.17 -6.44)"/><path fill="url(#h)" d="M117.3 604.27s-8.07-94.95 22.86-122.86c34.76-31.37 140-11.43 140-11.43s-71.54 24.84-100 48.57c-27.21 22.7-62.86 85.72-62.86 85.72" filter="url(#i)" transform="matrix(.2286 0 0 .2489 33.04 -51.98)"/><path fill="url(#j)" d="M117.3 604.27s-8.07-94.95 22.86-122.86c34.76-31.37 140-11.43 140-11.43s-71.54 24.84-100 48.57c-27.21 22.7-62.86 85.72-62.86 85.72" filter="url(#k)" transform="rotate(31.61 161.53 258.05)scale(.2764 .3311)"/><path fill="#fffeff" d="M14.72 41.67v151.37h137.53V41.67zm68.9 20.12c18.9 0 27.09 15.3 27.09 24.5 0 15.73-14.19 27.08-14.19 27.08 15.76-12.27 43.84-3.9 43.84 20.63 0 12.27-10.03 25.79-25.79 25.79-18.9 0-27.07-20.63-27.07-20.63s-2.4 23.52 11.6 36.1H68.15c14-12.59 11.61-36.1 11.61-36.1s-8.17 20.63-27.07 20.63c-15.76 0-25.8-13.51-25.8-25.79 0-24.53 28.1-32.9 43.85-20.63 0 0-14.19-11.35-14.19-27.08 0-9.2 8.18-24.5 27.08-24.5"/><path d="M20.7 43.74s3.52-2.82 3.52-6.74c0-2.29-2.03-6.09-6.74-6.09-4.7 0-6.73 3.8-6.73 6.1 0 3.9 3.53 6.73 3.53 6.73-3.92-3.05-10.91-.97-10.91 5.13 0 3.06 2.5 6.42 6.41 6.42 4.7 0 6.74-5.14 6.74-5.14s.6 5.86-2.89 8.99h7.7c-3.48-3.13-2.88-8.99-2.88-8.99s2.03 5.14 6.73 5.14a6.5 6.5 0 0 0 6.42-6.42c0-6.1-6.99-8.18-10.9-5.13"/><text xml:space="preserve" x="-160.46" y="-214.47" font-family="Bitstream Vera Sans" font-size="32" font-weight="400" letter-spacing="0" style="line-height:125%" transform="scale(-1)" word-spacing="0"><tspan x="-160.46" y="-214.47" font-family="Arial" style="-inkscape-font-specification:Arial">A</tspan></text><path d="M146.48 198.74s-3.52 2.82-3.52 6.74c0 2.29 2.03 6.09 6.73 6.09s6.74-3.8 6.74-6.1c0-3.9-3.53-6.73-3.53-6.73 3.92 3.05 10.9.97 10.9-5.13 0-3.06-2.5-6.42-6.41-6.42-4.7 0-6.74 5.14-6.74 5.14s-.6-5.86 2.89-8.99h-7.7c3.49 3.13 2.89 8.99 2.89 8.99s-2.04-5.14-6.74-5.14a6.5 6.5 0 0 0-6.41 6.42c0 6.1 6.98 8.18 10.9 5.13"/></svg>