<svg xmlns="http://www.w3.org/2000/svg" xmlns:xlink="http://www.w3.org/1999/xlink" xml:space="preserve" width="222.78" height="323.56" viewBox="0 0 167.09 242.67"><defs><radialGradient xlink:href="#f" id="i" cx="171.49" cy="511.22" r="81.9" fx="171.49" fy="511.22" gradientTransform="matrix(1.153 -.674 .3948 .6755 -233.63 270.4)" gradientUnits="userSpaceOnUse"/><radialGradient xlink:href="#g" id="h" cx="0" cy="-3.23" r="8" fx="0" fy="-3.23" gradientTransform="rotate(179.72 0 -5.11)scale(1.1224 1.8503)" gradientUnits="userSpaceOnUse"/><linearGradient id="g"><stop offset="0" stop-color="#df0000"/><stop offset="1" stop-color="#df0000" stop-opacity=".64"/></linearGradient><linearGradient id="f"><stop offset="0" stop-color="#fff" stop-opacity=".44"/><stop offset="1" stop-opacity="0"/></linearGradient><filter id="j" width="1.28" height="1.32" x="-.14" y="-.16" color-interpolation-filters="sRGB"><feGaussianBlur stdDeviation="9.51"/></filter></defs><g stroke="#000"><path fill="#fff" stroke-width=".5" d="M166.84 235.55a6.9 6.9 0 0 1-6.87 6.87H7.1a6.9 6.9 0 0 1-6.86-6.87V7.12A6.9 6.9 0 0 1 7.11.25h152.86c3.78 0 6.87 3.1 6.87 6.87z"/></g><text xml:space="preserve" x="6.25" y="28.01" fill="#df0000" font-family="Bitstream Vera Sans" font-size="32" font-weight="400" letter-spacing="0" style="line-height:125%" word-spacing="0"><tspan x="6.25" y="28.01" font-family="Arial" style="-inkscape-font-specification:Arial">A</tspan></text><text xml:space="preserve" x="-161.09" y="-213.52" fill="#df0000" font-family="Bitstream Vera Sans" font-size="32" font-weight="400" letter-spacing="0" style="line-height:125%" transform="scale(-1)" word-spacing="0"><tspan x="-161.09" y="-213.52" font-family="Arial" style="-inkscape-font-specification:Arial">A</tspan></text><path fill="url(#h)" d="M3.24-4.73A28 28 0 0 1 0-10.5s-1.13 2.91-3.24 5.77C-5.36-1.86-8 0-8 0s2.64 1.86 4.76 4.73A28 28 0 0 1 0 10.5s1.13-2.91 3.24-5.77A24 24 0 0 1 8 0S5.36-1.86 3.24-4.73" transform="translate(82.28 116.89)scale(5.9514)"/><path fill="url(#i)" d="M117.3 604.27s-8.07-94.95 22.86-122.86c34.76-31.37 140-11.43 140-11.43s-71.54 24.84-100 48.57c-27.21 22.7-62.86 85.72-62.86 85.72" filter="url(#j)" transform="rotate(170.81 56.85 117.84)scale(.2523 .2613)"/><path fill="#df0000" d="M21.76 37.26c-3.13-4.23-4.8-8.53-4.8-8.53s-1.66 4.3-4.78 8.53-7.03 6.98-7.03 6.98 3.9 2.75 7.03 6.98a41 41 0 0 1 4.79 8.52s1.66-4.3 4.79-8.52a35 35 0 0 1 7.02-6.98s-3.9-2.75-7.02-6.98M155.41 191.52a41 41 0 0 1-4.79-8.52s-1.66 4.3-4.79 8.52c-3.13 4.23-7.02 6.98-7.02 6.98s3.9 2.75 7.02 6.98a41 41 0 0 1 4.8 8.53s1.65-4.3 4.78-8.53 7.03-6.98 7.03-6.98-3.9-2.75-7.03-6.98"/></svg>