<svg xmlns="http://www.w3.org/2000/svg" xmlns:xlink="http://www.w3.org/1999/xlink" xml:space="preserve" width="222.78" height="323.56" viewBox="0 0 167.09 242.67"><defs><radialGradient xlink:href="#e" id="h" cx="-.21" cy="-4.58" r="8" fx="-.21" fy="-4.58" gradientTransform="matrix(-1 0 0 -1.7202 -.41 -13.03)" gradientUnits="userSpaceOnUse"/><radialGradient xlink:href="#f" id="i" cx="171.49" cy="511.22" r="81.9" fx="171.49" fy="511.22" gradientTransform="matrix(1.153 -.674 .3948 .6755 -233.63 270.4)" gradientUnits="userSpaceOnUse"/><radialGradient xlink:href="#g" id="k" cx="159.35" cy="492.63" r="81.9" fx="159.35" fy="492.63" gradientTransform="matrix(1.0895 -.7151 .4465 .6563 -244.93 290.92)" gradientUnits="userSpaceOnUse"/><linearGradient id="e"><stop offset="0" stop-color="#df0000"/><stop offset="1" stop-color="#df0000" stop-opacity=".67"/></linearGradient><linearGradient id="f"><stop offset="0" stop-color="#fff" stop-opacity=".31"/><stop offset="1" stop-opacity="0"/></linearGradient><linearGradient id="g"><stop offset="0" stop-color="#fff" stop-opacity=".29"/><stop offset="1" stop-opacity="0"/></linearGradient><filter id="j" width="1.28" height="1.32" x="-.14" y="-.16" color-interpolation-filters="sRGB"><feGaussianBlur stdDeviation="9.51"/></filter><filter id="l" width="1.28" height="1.32" x="-.14" y="-.16" color-interpolation-filters="sRGB"><feGaussianBlur stdDeviation="9.51"/></filter></defs><g stroke="#000"><path fill="#fff" stroke-width=".5" d="M166.84 235.55a6.9 6.9 0 0 1-6.87 6.87H7.1a6.9 6.9 0 0 1-6.86-6.87V7.12A6.9 6.9 0 0 1 7.11.25h152.86c3.78 0 6.87 3.1 6.87 6.87z"/></g><text xml:space="preserve" x="6.25" y="28.01" fill="#df0000" font-family="Bitstream Vera Sans" font-size="32" font-weight="400" letter-spacing="0" style="line-height:125%" word-spacing="0"><tspan x="6.25" y="28.01" font-family="Arial" style="-inkscape-font-specification:Arial">A</tspan></text><path fill="url(#h)" d="M3.68-9C.43-9 0-5.52 0-5.52S-.43-9-3.68-9C-5.95-9-8-7.44-8-4.5-8-.61-1.42 3.3 0 9 1.35 3.3 8-.61 8-4.5 8-7.44 5.95-9 3.68-9" transform="matrix(6.8256 0 0 6.3881 83.14 122.27)"/><path fill="url(#i)" d="M117.3 604.27s-8.07-94.95 22.86-122.86c34.76-31.37 140-11.43 140-11.43s-71.54 24.84-100 48.57c-27.21 22.7-62.86 85.72-62.86 85.72" filter="url(#j)" transform="matrix(.2922 0 0 .3026 -4.34 -71.84)"/><path fill="url(#k)" d="M117.3 604.27s-8.07-94.95 22.86-122.86c34.76-31.37 140-11.43 140-11.43s-63.1 37.07-91.55 60.8c-27.21 22.7-71.3 73.49-71.3 73.49" filter="url(#l)" transform="matrix(.227 .0665 -.0648 .276 94.81 -72.1)"/><path fill="#df0000" d="M23.33 32.28c-5.43 0-6.15 5.45-6.15 5.45s-.73-5.45-6.16-5.45c-3.8 0-7.24 2.45-7.24 7.05 0 6.1 11.02 12.22 13.4 21.16 2.26-8.94 13.4-15.07 13.4-21.16 0-4.6-3.45-7.05-7.25-7.05"/><text xml:space="preserve" x="-161.09" y="-213.52" fill="#df0000" font-family="Bitstream Vera Sans" font-size="32" font-weight="400" letter-spacing="0" style="line-height:125%" transform="scale(-1)" word-spacing="0"><tspan x="-161.09" y="-213.52" font-family="Arial" style="-inkscape-font-specification:Arial">A</tspan></text><path fill="#df0000" d="M144 209.25c5.43 0 6.16-5.45 6.16-5.45s.72 5.45 6.15 5.45c3.8 0 7.24-2.45 7.24-7.06 0-6.08-11.02-12.2-13.4-21.15-2.26 8.93-13.39 15.07-13.39 21.15 0 4.61 3.44 7.06 7.24 7.06"/></svg>