<svg xmlns="http://www.w3.org/2000/svg" xmlns:xlink="http://www.w3.org/1999/xlink" xml:space="preserve" width="222.78" height="323.56" viewBox="0 0 167.09 242.67"><defs><path id="reuse-0" d="M7.99 3.1C7.75-.95.24-8.59 0-10.5-.24-8.6-7.75-.95-7.99 3.1c-.17 2.87 1.7 4.06 3.4 4.06 1.83-.02 3.34-2.8 3.86-3.34.25.72-1.6 6.68-2.17 6.68h5.8C2.34 10.5.5 4.54.74 3.82c.45.5 1.8 3.26 3.87 3.34C6.3 7.16 8.16 5.97 8 3.1"/></defs><g style="fill-rule:nonzero;clip-rule:nonzero;stroke:#000;stroke-miterlimit:4"><path d="M166.84 235.55a6.9 6.9 0 0 1-6.87 6.87H7.1a6.9 6.9 0 0 1-6.86-6.87V7.12A6.9 6.9 0 0 1 7.11.25h152.86c3.78 0 6.87 3.1 6.87 6.87z" style="fill:#fff;stroke-width:.5"/></g><text xml:space="preserve" x="8.55" y="28.01" style="font-size:32px;font-style:normal;font-weight:400;line-height:125%;letter-spacing:0;word-spacing:0;fill:#000;fill-opacity:1;stroke:none;font-family:Bitstream Vera Sans"><tspan x="8.55" y="28.01" style="font-style:normal;font-variant:normal;font-weight:400;font-stretch:normal;font-family:Arial;-inkscape-font-specification:Arial">7</tspan></text><use xlink:href="#reuse-0" style="fill:#000" transform="matrix(1.5086 0 0 1.3793 16.93 45.07)"/><use xlink:href="#reuse-0" style="fill:#000" transform="matrix(2.6487 0 0 2.4217 54.61 44.57)"/><text xml:space="preserve" x="-158.98" y="-215.12" style="font-size:32px;font-style:normal;font-weight:400;line-height:125%;letter-spacing:0;word-spacing:0;fill:#000;fill-opacity:1;stroke:none;font-family:Bitstream Vera Sans" transform="scale(-1)"><tspan x="-158.98" y="-215.12" style="font-style:normal;font-variant:normal;font-weight:400;font-stretch:normal;font-family:Arial;-inkscape-font-specification:Arial">7</tspan></text><use xlink:href="#reuse-0" style="fill:#000" transform="matrix(-1.5086 0 0 -1.3793 150.23 198.04)"/><use xlink:href="#reuse-0" style="fill:#000" transform="matrix(-2.6487 0 0 -2.4217 54.66 198.57)"/><use xlink:href="#reuse-0" style="fill:#000" transform="matrix(2.6487 0 0 2.4217 54.7 119.07)"/><use xlink:href="#reuse-0" style="fill:#000" transform="matrix(2.6487 0 0 2.4217 112.5 44.37)"/><use xlink:href="#reuse-0" style="fill:#000" transform="matrix(-2.6487 0 0 -2.4217 112.54 198.37)"/><use xlink:href="#reuse-0" style="fill:#000" transform="matrix(2.6487 0 0 2.4217 112.58 118.87)"/><use xlink:href="#reuse-0" style="fill:#000" transform="matrix(2.6487 0 0 2.4217 83.5 83.94)"/></svg>