<svg xmlns="http://www.w3.org/2000/svg" xml:space="preserve" width="222.78" height="323.56" viewBox="0 0 167.09 242.67"><g stroke="#000"><path fill="#fff" stroke-width=".5" d="M166.84 235.55a6.9 6.9 0 0 1-6.87 6.87H7.1a6.9 6.9 0 0 1-6.86-6.87V7.12A6.9 6.9 0 0 1 7.11.25h152.86c3.78 0 6.87 3.1 6.87 6.87z"/></g><text xml:space="preserve" x="7.85" y="26.41" fill="#df0000" font-family="Bitstream Vera Sans" font-size="32" font-weight="400" letter-spacing="0" style="line-height:125%" word-spacing="0"><tspan x="7.85" y="26.41" font-family="Arial" style="-inkscape-font-specification:Arial">9</tspan></text><text xml:space="preserve" x="-159.49" y="-216.72" fill="#df0000" font-family="Bitstream Vera Sans" font-size="32" font-weight="400" letter-spacing="0" style="line-height:125%" transform="scale(-1)" word-spacing="0"><tspan x="-159.49" y="-216.72" font-family="Arial" style="-inkscape-font-specification:Arial">9</tspan></text><path fill="#df0000" d="M21.76 37.26c-3.13-4.23-4.8-8.53-4.8-8.53s-1.66 4.3-4.78 8.53-7.03 6.98-7.03 6.98 3.9 2.75 7.03 6.98a41 41 0 0 1 4.79 8.52s1.66-4.3 4.79-8.52a35 35 0 0 1 7.02-6.98s-3.9-2.75-7.02-6.98M155.41 191.52a41 41 0 0 1-4.79-8.52s-1.66 4.3-4.79 8.52c-3.13 4.23-7.02 6.98-7.02 6.98s3.9 2.75 7.02 6.98a41 41 0 0 1 4.8 8.53s1.65-4.3 4.78-8.53 7.03-6.98 7.03-6.98-3.9-2.75-7.03-6.98M62.52 198.68c-5.48-7.4-8.4-14.94-8.4-14.94s-2.9 7.53-8.39 14.94-12.3 12.23-12.3 12.23 6.82 4.82 12.3 12.24c5.48 7.4 8.4 14.94 8.4 14.94s2.91-7.53 8.4-14.94a61 61 0 0 1 12.3-12.24s-6.82-4.82-12.3-12.23M62.52 19.39a72 72 0 0 1-8.4-14.95s-2.9 7.54-8.39 14.95-12.3 12.23-12.3 12.23 6.82 4.82 12.3 12.23a72 72 0 0 1 8.4 14.95s2.91-7.54 8.4-14.95 12.3-12.23 12.3-12.23-6.82-4.82-12.3-12.23M62.52 138.95c-5.48-7.41-8.4-14.94-8.4-14.94s-2.9 7.53-8.39 14.94-12.3 12.23-12.3 12.23 6.82 4.82 12.3 12.24a72 72 0 0 1 8.4 14.94s2.91-7.53 8.4-14.94a61 61 0 0 1 12.3-12.24s-6.82-4.82-12.3-12.23M62.52 79.12c-5.48-7.41-8.4-14.95-8.4-14.95s-2.9 7.54-8.39 14.95-12.3 12.23-12.3 12.23 6.82 4.82 12.3 12.23a72 72 0 0 1 8.4 14.95s2.91-7.54 8.4-14.95 12.3-12.23 12.3-12.23-6.82-4.82-12.3-12.23M121.3 198.68c-5.49-7.4-8.4-14.94-8.4-14.94s-2.92 7.53-8.4 14.94-12.31 12.23-12.31 12.23 6.83 4.82 12.31 12.24c5.48 7.4 8.4 14.94 8.4 14.94s2.91-7.53 8.4-14.94c5.47-7.42 12.3-12.24 12.3-12.24s-6.83-4.82-12.3-12.23M121.3 19.39c-5.49-7.41-8.4-14.95-8.4-14.95s-2.92 7.54-8.4 14.95S92.2 31.62 92.2 31.62s6.83 4.82 12.31 12.23 8.4 14.95 8.4 14.95 2.91-7.54 8.4-14.95c5.47-7.41 12.3-12.23 12.3-12.23s-6.83-4.82-12.3-12.23M121.3 138.95c-5.49-7.41-8.4-14.94-8.4-14.94s-2.92 7.53-8.4 14.94-12.31 12.23-12.31 12.23 6.83 4.82 12.31 12.24a72 72 0 0 1 8.4 14.94s2.91-7.53 8.4-14.94c5.47-7.42 12.3-12.24 12.3-12.24s-6.83-4.82-12.3-12.23M121.3 79.12c-5.49-7.41-8.4-14.95-8.4-14.95s-2.92 7.54-8.4 14.95S92.2 91.35 92.2 91.35s6.83 4.82 12.31 12.23a72 72 0 0 1 8.4 14.95s2.91-7.54 8.4-14.95c5.47-7.41 12.3-12.23 12.3-12.23s-6.83-4.82-12.3-12.23M91.6 49.6c-5.47-7.41-8.39-14.95-8.39-14.95s-2.91 7.54-8.4 14.95c-5.47 7.4-12.3 12.23-12.3 12.23s6.83 4.82 12.3 12.23a72 72 0 0 1 8.4 14.95s2.92-7.54 8.4-14.95 12.31-12.23 12.31-12.23S97.09 57 91.61 49.6"/></svg>