<svg xmlns="http://www.w3.org/2000/svg" xml:space="preserve" width="222.78" height="323.56" viewBox="0 0 167.09 242.67"><g stroke="#000"><path fill="#fff" stroke-width=".5" d="M166.84 235.55a6.9 6.9 0 0 1-6.87 6.87H7.1a6.9 6.9 0 0 1-6.86-6.87V7.12A6.9 6.9 0 0 1 7.11.25h152.86c3.78 0 6.87 3.1 6.87 6.87z"/></g><path fill="#df0000" d="M23.33 32.28c-5.43 0-6.15 5.45-6.15 5.45s-.73-5.45-6.16-5.45c-3.8 0-7.24 2.45-7.24 7.05 0 6.1 11.02 12.22 13.4 21.16 2.26-8.94 13.4-15.07 13.4-21.16 0-4.6-3.45-7.05-7.25-7.05M144 209.25c5.43 0 6.16-5.45 6.16-5.45s.72 5.45 6.15 5.45c3.8 0 7.24-2.45 7.24-7.06 0-6.08-11.02-12.2-13.4-21.15-2.26 8.93-13.39 15.07-13.39 21.15 0 4.61 3.44 7.06 7.24 7.06M64.73 6.6c-9.01 0-10.22 9.04-10.22 9.04S53.31 6.6 44.3 6.6c-6.31 0-12.02 4.05-12.02 11.7 0 10.1 18.28 20.27 22.23 35.11 3.76-14.83 22.23-25 22.23-35.11 0-7.65-5.7-11.7-12.01-11.7M44.3 236.21c9 0 10.21-9.04 10.21-9.04s1.2 9.04 10.22 9.04c6.3 0 12.01-4.05 12.01-11.7 0-10.1-18.28-20.27-22.23-35.11-3.75 14.83-22.23 25-22.23 35.11 0 7.65 5.7 11.7 12.02 11.7M64.73 71.83c-9.01 0-10.22 9.04-10.22 9.04s-1.2-9.04-10.21-9.04c-6.31 0-12.02 4.06-12.02 11.7 0 10.11 18.28 20.28 22.23 35.12 3.76-14.83 22.23-25 22.23-35.12 0-7.64-5.7-11.7-12.01-11.7M44.3 168.76c9 0 10.21-9.04 10.21-9.04s1.2 9.04 10.22 9.04c6.3 0 12.01-4.05 12.01-11.7 0-10.1-18.28-20.27-22.23-35.11-3.75 14.83-22.23 25-22.23 35.11 0 7.65 5.7 11.7 12.02 11.7M122.2 7.2c-9 0-10.2 9.04-10.2 9.04s-1.21-9.05-10.22-9.05c-6.31 0-12.02 4.06-12.02 11.7 0 10.12 18.28 20.28 22.23 35.12 3.76-14.83 22.23-25 22.23-35.11 0-7.65-5.7-11.7-12.01-11.7M101.78 236.81c9 0 10.21-9.04 10.21-9.04s1.2 9.04 10.22 9.04c6.3 0 12.01-4.05 12.01-11.7 0-10.1-18.28-20.27-22.23-35.11-3.76 14.83-22.23 25-22.23 35.1 0 7.66 5.7 11.71 12.02 11.71M122.2 72.43c-9 0-10.2 9.04-10.2 9.04s-1.21-9.04-10.22-9.04c-6.31 0-12.02 4.05-12.02 11.7 0 10.11 18.28 20.27 22.23 35.12 3.76-14.83 22.23-25.01 22.23-35.12 0-7.65-5.7-11.7-12.01-11.7M101.78 169.36c9 0 10.21-9.04 10.21-9.04s1.2 9.04 10.22 9.04c6.3 0 12.01-4.05 12.01-11.7 0-10.1-18.28-20.27-22.23-35.11-3.76 14.83-22.23 25-22.23 35.1 0 7.66 5.7 11.71 12.02 11.71M93.43 39.3c-9.01 0-10.22 9.04-10.22 9.04S82.01 39.3 73 39.3c-6.31 0-12.02 4.05-12.02 11.7 0 10.1 18.28 20.27 22.23 35.11 3.76-14.83 22.24-25 22.24-35.1 0-7.66-5.71-11.71-12.02-11.71"/><text xml:space="preserve" x="8.74" y="28.01" fill="#df0000" font-family="Bitstream Vera Sans" font-size="32" font-weight="400" letter-spacing="0" style="line-height:125%" word-spacing="0"><tspan x="8.74" y="28.01" font-family="Arial" style="-inkscape-font-specification:Arial">9</tspan></text><text xml:space="preserve" x="-158.82" y="-213.51" fill="#df0000" font-family="Bitstream Vera Sans" font-size="32" font-weight="400" letter-spacing="0" style="line-height:125%" transform="scale(-1)" word-spacing="0"><tspan x="-158.82" y="-213.51" font-family="Arial" style="-inkscape-font-specification:Arial">9</tspan></text></svg>